<svg xmlns="http://www.w3.org/2000/svg" data-name="Layer 1" viewBox="0 0 100 125" x="0px" y="0px"><title>Artboard 3</title><path d="M95,37.62,89.58,23.38,74.73,19.51l8.82,8.59V40.71l-8.28,5.23L44.55,44.5,39.65,37c-.35-9.83-4.23-18.43-9.55-22.77V25.68a13.38,13.38,0,0,0-2.3-.46,25.3,25.3,0,0,0-7.29-11V26.48A13.33,13.33,0,0,0,13,38.5H7.2a2.18,2.18,0,0,0-2.08,2.87c2.13,6,10.75,10.46,21.09,10.49l6.65,13,3.85,6.57,3.17,10.06-3.71,2.17v2.09H44.6l-2.2-18.3,4.91,4,3.17,10.06-3.71,2.17v2.09H55.2L53,67.1,51.5,62.8l4.1-.45,4.31,8.08,6.11,1,3.17,10.06-3.71,2.17v2.09h8.43L72.1,70.66l4.71.77L80,81.49l-3.72,2.17v2.09h8.44L82.46,67.1,76.52,49.62l14.61-3.68ZM18.5,41.27c-1.69,0-3.07-1.87-3.07-4.19s1.38-4.18,3.07-4.18,3.08,1.87,3.08,4.18S20.2,41.27,18.5,41.27Zm7.87,0c-1.7,0-3.07-1.87-3.07-4.19s1.37-4.18,3.07-4.18,3.07,1.87,3.07,4.18S28.07,41.27,26.37,41.27Z"/><ellipse cx="27.76" cy="37.08" rx="1.39" ry="1.89"/><path d="M18.5,37.08c0,1.05.63,1.9,1.39,1.9s1.39-.85,1.39-1.9-.62-1.89-1.39-1.89S18.5,36,18.5,37.08Z"/></svg>
