<svg xmlns="http://www.w3.org/2000/svg" xmlns:xlink="http://www.w3.org/1999/xlink" version="1.1" x="0px" y="0px" viewBox="0 0 100 125" style="enable-background:new 0 0 100 100;" xml:space="preserve"><path d="M94.9,31.1c-1.3-2.2-3.6-3.6-6.2-4c0.9-2.5,0.7-5.2-0.5-7.4c-1.5-2.6-4.5-4.1-7.8-4.1c-2.1,0-4.2,0.6-6,1.7  c-4.2,2.5-6.3,7-5.4,11L21.9,56.1c-1.6-1.4-3.9-2.2-6.3-2.2c-2.1,0-4.2,0.6-6,1.7c-2.4,1.4-4.2,3.6-5.1,6.1  c-0.9,2.5-0.7,5.1,0.6,7.3c1.3,2.2,3.6,3.6,6.2,4c-0.9,2.5-0.7,5.2,0.5,7.4c1.5,2.6,4.5,4.1,7.8,4.1c2.1,0,4.2-0.6,6-1.7  c4.2-2.5,6.3-7,5.4-11l46.9-27.8c1.6,1.4,3.9,2.2,6.3,2.2c2.1,0,4.2-0.6,6-1.7c2.4-1.4,4.2-3.6,5.1-6.1  C96.3,35.8,96.1,33.3,94.9,31.1z M89.1,42.3c-2.4,1.4-5.3,1.7-7.6,0.8c-0.9-0.3-1.6-0.9-2.2-1.5l-0.8-0.9L28.2,70.6l0.4,1.1  c0.5,1.5,0.4,3.1-0.3,4.7c-0.7,1.7-2.1,3.2-3.8,4.2c-2.6,1.5-5.8,1.8-8.1,0.6c-1-0.5-1.8-1.3-2.3-2.2c-0.5-0.9-0.8-1.9-0.8-3.1  c0-1.1,0.3-2.2,0.9-3.3l1.1-2.1l-2.4,0c-1.2,0-2.4-0.3-3.3-0.8c-1-0.5-1.8-1.2-2.3-2.2c-0.9-1.5-1-3.4-0.4-5.2  c0.7-1.9,2.1-3.6,4-4.7c1.5-0.9,3.1-1.4,4.8-1.4c1,0,2,0.2,2.8,0.5c0.9,0.3,1.6,0.9,2.2,1.5l0.8,0.9l50.3-29.8l-0.4-1.1  c-0.5-1.5-0.4-3.1,0.3-4.7c0.7-1.7,2.1-3.2,3.8-4.2c1.5-0.9,3.1-1.4,4.8-1.4c1.2,0,2.4,0.3,3.4,0.8c1,0.5,1.8,1.3,2.3,2.2  c0.5,0.9,0.8,1.9,0.8,3.1c0,1.1-0.3,2.2-0.9,3.3l-1.1,2.1l2.4,0c1.2,0,2.4,0.3,3.3,0.8c1,0.5,1.8,1.2,2.3,2.2c0.9,1.5,1,3.4,0.4,5.2  C92.5,39.5,91,41.2,89.1,42.3L89.1,42.3z"/></svg>
